<svg height="19.143" viewBox="0 0 23 19.143" width="23" xmlns="http://www.w3.org/2000/svg"><g fill="#0982fd"><path d="m13.973 1a1 1 0 0 0 -1-1h-5.161a1 1 0 0 0 -.712 1.7l.444.453a1 1 0 0 1 0 1.4l-6.857 6.992a1 1 0 0 0 0 1.4l1.545 1.576a1 1 0 0 0 1.428 0l6.8-6.935a1 1 0 0 1 1.428 0l.37.377a1 1 0 0 0 1.714-.7z" transform="translate(9.027 5.323)"/><path d="m13.286 3.7a1 1 0 0 0 0-1.4l-1.545-1.572a1 1 0 0 0 -1.428 0l-6.8 6.935a1 1 0 0 1 -1.428 0l-.37-.377a1 1 0 0 0 -1.715.7v5.263a1 1 0 0 0 1 1h5.161a1 1 0 0 0 .714-1.7l-.444-.449a1 1 0 0 1 0-1.4z" transform="translate(0 -.428)"/></g></svg>