<svg height="36" viewBox="0 0 31.5 36" width="31.5" xmlns="http://www.w3.org/2000/svg"><path d="m22.5 31.5v2.813a1.687 1.687 0 0 1 -1.687 1.687h-19.125a1.687 1.687 0 0 1 -1.688-1.687v-25.875a1.687 1.687 0 0 1 1.688-1.688h5.062v20.813a3.942 3.942 0 0 0 3.938 3.937zm0-24.187v-7.313h-11.812a1.687 1.687 0 0 0 -1.688 1.688v25.875a1.687 1.687 0 0 0 1.688 1.688h19.125a1.687 1.687 0 0 0 1.687-1.688v-18.563h-7.312a1.692 1.692 0 0 1 -1.688-1.687zm8.506-2.182-4.637-4.637a1.688 1.688 0 0 0 -1.193-.494h-.426v6.75h6.75v-.426a1.688 1.688 0 0 0 -.494-1.193z" fill="#2585c6"/></svg>