<svg enable-background="new 0 0 1000 1000" viewBox="0 0 1000 1000" xmlns="http://www.w3.org/2000/svg"><g fill="#ffffff" transform="matrix(.1 0 0 -.1 0 512)"><path d="m781.9 4998c-164.7-42.1-283.5-111.1-411.8-239.4-136-136-210.7-268.2-247.1-438.7-30.7-143.7-30.7-7332.8 0-7478.3 34.5-166.7 113-302.7 247.1-436.7 134.1-134.1 270.1-212.6 436.7-247.1 67-13.4 444.4-21.1 1120.6-21.1h1019.1l120.7-143.7c576.6-691.5 1503.7-948.2 2338.9-649.4 342.9 120.7 666.6 348.6 911.8 634.1l134.1 159h1180c1128.3 0 1187.6 1.9 1306.4 38.3 235.6 72.8 444.4 250.9 561.3 482.7 95.8 189.6 103.4 266.3 103.4 1176.1v846.7l47.9 30.6c80.5 53.7 145.6 132.2 199.2 241.4l49.8 105.4v921.4 919.5l-57.5 114.9c-40.2 76.6-88.1 134.1-149.4 180.1l-90 67v862c0 950.1-3.8 984.6-118.8 1201.1-72.8 137.9-245.2 300.7-385 367.8l-105.4 49.8-5.7 283.5c-7.7 281.6-7.7 283.5-78.6 427.2-82.4 166.6-226 318-402.3 425.2-250.9 151.3 122.6 137.9-3970.9 141.8-2882.9 1.7-3679.7-2.1-3754.5-21.2zm7374.9-632.2c53.6-23 124.5-74.7 159-114.9 61.3-69 61.3-72.8 61.3-260.5v-191.6h-3739.1c-3676 0-3743 0-3802.4 38.3-91.9 55.6-126.4 136-116.8 279.7 9.6 139.8 49.8 208.8 151.3 260.5 61.3 32.6 273.9 34.5 3628.1 34.5h3562.9zm-7300.1-1189.5c88.1-21.1 137.9-23 174.3-9.6 67 24.9 7725.4 26.8 7792.5 1.9 26.8-11.5 72.8-51.7 103.5-90l53.6-70.9 5.7-831.4 5.7-829.4h-155.2-153.2v580.4c0 540.2-3.8 584.2-40.2 664.7-51.7 114.9-122.6 187.7-237.5 241.4l-95.8 46h-3687.5c-3472.9 0-3691.3 1.9-3752.6 34.5-86.2 44.1-136 113-149.4 210.7-5.7 44.1-5.7 80.5 0 80.5 5.8-.1 67.1-13.5 136.1-28.8zm11.4-892.7c36.4-9.6 1672.3-17.2 3635.7-17.2h3566.8v-459.7-457.8l-846.7-5.8-848.6-5.7-95.8-47.9c-122.6-59.4-237.5-174.3-296.9-296.9l-47.9-95.8-5.7-873.5-5.7-875.4-153.3 93.8c-584.2 350.5-1304.5 387-1923.2 95.8-613-287.3-1078.5-858.2-1195.3-1467.3-13.4-63.2-26.8-134.1-32.6-159l-9.6-44.1-860.1 5.8c-835.2 5.7-860.1 7.7-913.7 46-28.7 21.1-69 69-86.2 105.4-32.5 61.3-34.5 208.8-34.5 2283.3v2218.2l44.1-13.4c23-7.7 72.9-21.1 109.2-28.8zm8466.8-2315.9v-766.2h-1398.3-1398.4v766.2 766.2h1398.4 1398.4v-766.2zm-4463.2-1055.5c634.1-76.6 1137.9-524.9 1314.1-1166.6 24.9-92 34.5-193.5 34.5-383.1 0-243.3-3.8-270.1-61.3-438.7-46-132.2-82.4-203-137.9-262.4-46-49.8-78.5-109.2-88.1-155.2-38.3-205-469.3-526.8-840.9-626.4-187.7-51.7-473.1-61.3-660.9-23-321.8 65.1-580.4 206.9-814.1 442.5-113 114.9-155.2 176.2-262.4 392.7-159 318-199.2 482.7-182 775.8 42.1 749 597.7 1348.5 1337.1 1444.3 176 23.1 183.7 23.1 361.9.1zm3160.6-783.4v-459.8h-609.1-609.2l-32.6 143.7c-38.3 178.1-147.5 457.8-245.2 626.4-42.1 68.9-74.7 132.1-74.7 137.9s354.4 11.5 785.4 11.5h785.4zm957.8-331.4c0-781.5 0-791.1-42.1-875.4-24.9-47.9-72.8-105.4-109.2-128.3l-65.1-44.1h-1009.6-1009.5l24.9 99.6c15.3 55.5 26.8 124.5 26.8 153.2v51.7l762.4 5.7c743.2 5.7 762.4 7.6 839 47.9 101.5 53.6 231.8 201.1 256.7 291.2 11.5 38.3 19.2 312.2 19.2 630.2v559.3h153.2 153.2v-791zm-8122-724.1c36.4-9.6 442.5-17.2 902.2-17.2h835.2l23-109.2c11.5-61.3 26.8-130.3 32.6-153.2l11.5-44.1h-867.7c-789.2 0-875.4 3.8-934.8 34.5-93.9 46-139.8 118.8-151.3 233.7-9.6 97.7-7.7 99.6 36.4 86.2 24.8-9.6 76.6-23 112.9-30.7z"/><path d="m7122.4 383.4c-114.9-57.5-185.8-128.3-237.5-243.3-99.6-220.3 3.8-477 237.5-586.2 122.6-59.4 239.4-59.4 364 0 434.8 201.1 327.5 833.3-147.5 867.8-99.6 5.7-137.9 0-216.5-38.3zm287.4-310.3c95.8-93.9 28.7-258.6-105.4-258.6-78.5 0-153.2 74.7-153.2 153.3 0 78.5 74.7 153.2 153.2 153.2 36.4-.1 76.6-17.3 105.4-47.9z"/><path d="m4549.8-1449.8c-136-61.3-157.1-132.2-157.1-540.2v-341h-339.1c-296.9 0-352.5-5.7-423.3-38.3-208.8-93.9-206.9-442.5 1.9-538.3 69-30.7 128.3-36.4 421.4-36.4h339.1v-339c0-296.9 5.7-352.5 38.3-423.3 93.9-206.9 442.5-206.9 536.4 0 32.6 70.9 38.3 126.4 38.3 423.3v339.1h341c415.7 0 478.9 21.1 544 164.7 67 153.2 28.7 296.9-107.3 398.4-47.9 36.4-84.3 40.2-415.7 46l-362 5.7v339.1c0 291.2-5.7 350.5-36.4 419.5-67 145.6-249 197.3-419.5 120.7z"/></g></svg>