<svg viewBox="0 0 437.5 437.5" xmlns="http://www.w3.org/2000/svg"><path d="m65.63 0a65.63 65.63 0 1 0 0 131.25h345.62v280h-345.62a39 39 0 0 1 -39.38-39.37v-227.5a13.13 13.13 0 1 0 -26.25 0v227.5a65.78 65.78 0 0 0 65.63 65.62h358.75a13.12 13.12 0 0 0 13.12-13.12v-306.26a13.12 13.12 0 0 0 -13.12-13.12h-358.75a39 39 0 0 1 -39.38-39.38 39 39 0 0 1 39.38-39.37h293.12v48.13a13.13 13.13 0 1 0 26.25 0v-61.26a13.13 13.13 0 0 0 -13.13-13.12z"/><path d="m218.75 306.25a122.12 122.12 0 0 0 -72.18 23.52 13.13 13.13 0 1 0 15.43 21.23 96.32 96.32 0 0 1 113.41 0 13.13 13.13 0 1 0 15.47-21.19 122.11 122.11 0 0 0 -72.17-23.52z"/><path d="m263.72 211.51a13.12 13.12 0 0 0 .28 18.55l6.19 6.19-6.19 6.19a13.13 13.13 0 1 0 18.56 18.56l6.18-6.19 6.19 6.19a13.13 13.13 0 1 0 18.56-18.56l-6.18-6.19 6.18-6.19a13.13 13.13 0 1 0 -18.56-18.56l-6.19 6.19-6.18-6.19a13.13 13.13 0 0 0 -18.84 0z"/><path d="m123.72 211.51a13.12 13.12 0 0 0 .28 18.55l6.19 6.19-6.19 6.19a13.13 13.13 0 1 0 18.56 18.56l6.18-6.19 6.19 6.19a13.13 13.13 0 1 0 18.56-18.56l-6.18-6.19 6.18-6.19a13.13 13.13 0 1 0 -18.56-18.56l-6.19 6.19-6.18-6.19a13.13 13.13 0 0 0 -18.84 0z"/></svg>