<svg height="20" viewBox="0 0 20 20" width="20" xmlns="http://www.w3.org/2000/svg"><path d="m6.8 20a1.916 1.916 0 0 1 -.709-.129 2.112 2.112 0 0 1 -1.281-1.871 2.871 2.871 0 0 0 -.66-1.96 2.91 2.91 0 0 0 -1.8-.606c-.06 0-.12 0-.177.006-.032 0-.065 0-.1 0a2.14 2.14 0 0 1 -1.816-1.225 2.1 2.1 0 0 1 .427-2.23 2.886 2.886 0 0 0 .916-1.853 3.006 3.006 0 0 0 -.983-1.824 2.106 2.106 0 0 1 -.488-2.214 2.116 2.116 0 0 1 1.828-1.283h.13a2.864 2.864 0 0 0 1.875-.661 2.919 2.919 0 0 0 .6-1.981 2.106 2.106 0 0 1 1.221-1.913 1.949 1.949 0 0 1 .765-.148 2.036 2.036 0 0 1 1.464.575 2.912 2.912 0 0 0 1.82.918h.032a3.018 3.018 0 0 0 1.825-.985 2.032 2.032 0 0 1 1.505-.616 1.91 1.91 0 0 1 .706.129 2.112 2.112 0 0 1 1.282 1.871 2.879 2.879 0 0 0 .66 1.964 2.916 2.916 0 0 0 1.8.606c.06 0 .119 0 .177-.006h.1a2.129 2.129 0 0 1 1.814 1.221 2.149 2.149 0 0 1 -.416 2.238 2.846 2.846 0 0 0 -.917 1.853 2.952 2.952 0 0 0 .986 1.826 2.032 2.032 0 0 1 -1.33 3.5h-.056-.1a2.836 2.836 0 0 0 -1.857.656 2.928 2.928 0 0 0 -.6 1.981 2.1 2.1 0 0 1 -1.221 1.91 1.965 1.965 0 0 1 -.774.151 2.038 2.038 0 0 1 -1.456-.569 2.948 2.948 0 0 0 -1.839-.923h-.016a2.953 2.953 0 0 0 -1.824.976 2.031 2.031 0 0 1 -1.513.616zm3.193-13.891h-.056a3.893 3.893 0 1 0 1.6 7.465h.005a3.894 3.894 0 0 0 -1.55-7.466z" fill="#0982fd"/></svg>