<svg height="20" viewBox="0 0 24.091 20" width="24.091" xmlns="http://www.w3.org/2000/svg"><g fill="#0982fd"><path d="m0 13.975a1.91 1.91 0 0 0 1.915 1.9h20.06a.766.766 0 0 0 .768-.764v-4.48h-3.132a2.824 2.824 0 1 1 -.043-5.647h3.176v-3.513a.766.766 0 0 0 -.768-.764h-20.062a2.935 2.935 0 0 1 -1.914-.707z" transform="translate(0 4.12)"/><path d="m5.92 0h-4.105a1.8 1.8 0 1 0 0 3.61h4.105a.417.417 0 0 0 .418-.416v-2.778a.417.417 0 0 0 -.418-.416z" transform="translate(17.753 10.122)"/><path d="m0 1.95a1.933 1.933 0 0 0 1.95 1.859h18.717v-3.045a.766.766 0 0 0 -.767-.764h-17.986a1.911 1.911 0 0 0 -1.914 1.95z"/></g></svg>